<svg width="86" height="37" viewBox="0 0 86 37" fill="none" xmlns="http://www.w3.org/2000/svg">
<path fill-rule="evenodd" clip-rule="evenodd" d="M24.8866 0.120693C20.1212 0.87528 14.4367 2.45836 11.378 3.88265L9.8788 4.58076L17.9475 4.7444L26.0163 4.90771L27.8808 3.72419C30.5376 2.0375 33.2662 1.19093 36.667 0.997925C39.5549 0.833969 39.9493 1.1664 37.4738 1.67828C35.5296 2.0801 30.9479 4.10309 28.7596 5.52577L26.6617 6.88971L21.4978 6.61892C18.6576 6.46981 12.8116 6.38687 8.50679 6.43463C4.20197 6.4824 0.68013 6.4143 0.68013 6.28359C0.680776 5.87208 4.94945 3.87426 8.37737 2.68106C11.2047 1.697 16.2098 0.553176 19.5613 0.125534C20.8477 -0.0387453 25.9227 -0.0432636 24.8866 0.120693ZM49.7076 2.9838C52.5059 3.6435 56.4279 5.52738 59.992 7.9238C62.8267 9.82995 63.0285 9.91064 64.9759 9.9158C67.4466 9.9229 70.8132 10.6058 72.8881 11.5215C74.5396 12.2506 76.6346 14.0809 77.3288 15.4012C77.923 16.5318 78.2112 18.9253 77.8894 20.0575C77.6464 20.9141 77.5806 20.7853 77.2146 18.7385C76.5271 14.8903 75.097 13.3198 72.3191 13.3618C71.3302 13.3766 68.8547 14.0386 65.4972 15.1863C59.1806 17.3455 55.8786 17.8619 51.6674 17.35C47.0317 16.7862 41.3055 14.5211 36.7761 11.4592C34.6498 10.022 34.5898 10.0039 31.2893 9.82124C29.4542 9.71989 26.7908 9.44427 25.3708 9.20866L22.7888 8.78069L28.5982 8.61738C31.7935 8.52734 34.5933 8.33498 34.8199 8.18942C35.0932 8.01416 35.8301 8.4715 37.0075 9.54755C39.3568 11.6948 43.2139 13.6045 46.2287 14.1128C48.6374 14.5192 53.336 14.3833 57.9684 13.7736C61.8569 13.2617 68.135 12.0721 68.135 11.8475C68.135 11.5115 61.2401 10.5581 56.5732 10.2489C54.2523 10.0949 52.1912 9.86868 51.9927 9.74604C51.7945 9.62339 51.2062 8.93497 50.6853 8.21588C49.6667 6.80967 49.4181 7.06399 50.2463 8.66547C50.5255 9.20543 50.7072 9.69311 50.6497 9.74862C50.4164 9.9739 43.9379 8.87881 41.831 8.25816C40.5884 7.89184 38.7339 7.14823 37.7098 6.60504C35.8969 5.64422 35.8627 5.60129 36.4188 4.98646C37.1459 4.18217 39.0518 3.20682 40.6155 2.83824C42.5704 2.37768 47.4691 2.45611 49.7076 2.9838ZM32.6326 12.2002C33.9639 12.3813 35.498 12.6685 36.0415 12.8386C37.1885 13.1975 38.8684 14.8755 40.3799 17.1722C42.5788 20.5133 44.3145 21.72 48.3637 22.7228C50.8105 23.3289 59.3494 23.5035 63.6814 23.0362L66.1669 22.7683L66.3637 21.2611C66.8779 17.3248 68.6472 14.7964 71.0791 14.5224C72.3995 14.3736 72.6732 14.4659 73.7721 15.4306C74.4451 16.0216 75.2797 17.1635 75.627 17.9681C76.3099 19.5512 76.5384 22.8103 76.1085 24.8375L75.8516 26.0478H80.7722C83.4785 26.0478 85.5544 26.1678 85.3859 26.3144C85.2171 26.4612 79.8508 27.2022 73.4604 27.9613C67.0699 28.7208 55.3783 30.128 47.4791 31.0888C39.5798 32.0496 28.8322 33.3442 23.5956 33.9651C18.359 34.5861 11.1514 35.4549 7.57857 35.8961C-2.74811 37.1716 -2.62837 37.0212 8.59587 34.62C13.2067 33.6337 17.2249 32.8265 17.525 32.8261C18.3803 32.8252 18.4688 32.3591 17.9004 30.8425C17.1461 28.8305 17.1294 23.5397 17.8697 21.1471C18.9597 17.624 21.6007 15.0743 24.1595 15.0743C26.9209 15.0743 28.5653 16.434 30.3127 20.1624C31.1154 21.8749 31.1802 22.3284 31.1802 26.2237V30.4336L36.1828 29.7145C43.751 28.6265 52.0214 27.7228 59.9049 27.1222C63.8102 26.8249 67.037 26.5629 67.0757 26.5403C67.1141 26.5177 66.9921 25.9981 66.8043 25.3858L66.4628 24.2726L57.3742 25.3003C45.9002 26.5977 40.7594 26.9198 39.7909 26.4015C39.3693 26.1759 38.4915 24.7949 37.6568 23.0443C33.7542 14.8581 27.8866 12.3413 14.578 13.1446C11.8369 13.3098 9.54185 13.3925 9.47762 13.3282C9.25428 13.1052 15.3258 12.1163 18.5653 11.8484C22.2636 11.5425 29.0423 11.7119 32.6326 12.2002ZM16.6565 16.0242C17.1965 16.241 17.0651 16.3482 15.8551 16.6797C13.7114 17.2671 11.7104 18.3818 9.71743 20.0992C6.98503 22.4533 4.89071 23.2047 2.69763 22.6169C1.61546 22.3268 1.81137 22.0289 3.35572 21.6158C4.79486 21.2307 5.61754 20.5675 7.36039 18.3863C8.89829 16.4618 10.6566 15.7156 13.5904 15.7427C14.9218 15.755 16.3015 15.8818 16.6565 16.0242ZM70.3942 16.2039C69.4441 16.7471 69.6771 16.822 70.8864 16.3621C71.6397 16.0758 71.8728 16.1655 72.8107 17.1034C74.5196 18.8124 75.0493 21.7604 74.1201 24.3934C73.8619 25.1257 73.7715 25.725 73.9193 25.725C75.2968 25.725 75.5595 20.7398 74.315 18.2124C73.8741 17.3171 73.1702 16.4712 72.6364 16.1952C71.5239 15.6197 71.4154 15.6201 70.3942 16.2039ZM22.4034 17.8545L21.4978 18.6981L22.374 18.1772C24.409 16.9675 26.2712 17.849 27.4451 20.5775C28.729 23.562 28.6625 27.1403 27.2611 30.4856C27.152 30.746 27.3789 30.889 27.9008 30.889C29.0359 30.889 29.55 29.2165 29.5474 25.5356C29.5458 22.869 29.4484 22.4052 28.475 20.4281C26.8228 17.0721 24.3625 16.0293 22.4034 17.8545Z" fill="white"/>
</svg>
