<svg width="201" height="37" viewBox="0 0 201 37" fill="none" xmlns="http://www.w3.org/2000/svg">
<path fill-rule="evenodd" clip-rule="evenodd" d="M24.8866 0.120693C20.1212 0.87528 14.4367 2.45836 11.378 3.88265L9.8788 4.58076L17.9475 4.7444L26.0163 4.90771L27.8808 3.72419C30.5376 2.0375 33.2662 1.19093 36.667 0.997925C39.5549 0.833969 39.9493 1.1664 37.4738 1.67828C35.5296 2.0801 30.9479 4.10309 28.7596 5.52577L26.6617 6.88971L21.4978 6.61892C18.6576 6.46981 12.8116 6.38687 8.50679 6.43463C4.20197 6.4824 0.68013 6.4143 0.68013 6.28359C0.680776 5.87208 4.94945 3.87426 8.37737 2.68106C11.2047 1.697 16.2098 0.553176 19.5613 0.125534C20.8477 -0.0387453 25.9227 -0.0432636 24.8866 0.120693ZM49.7076 2.9838C52.5059 3.6435 56.4279 5.52738 59.992 7.9238C62.8267 9.82995 63.0285 9.91064 64.9759 9.9158C67.4466 9.9229 70.8132 10.6058 72.8881 11.5215C74.5396 12.2506 76.6346 14.0809 77.3288 15.4012C77.923 16.5318 78.2112 18.9253 77.8894 20.0575C77.6464 20.9141 77.5806 20.7853 77.2146 18.7385C76.5271 14.8903 75.097 13.3198 72.3191 13.3618C71.3302 13.3766 68.8547 14.0386 65.4972 15.1863C59.1806 17.3455 55.8786 17.8619 51.6674 17.35C47.0317 16.7862 41.3055 14.5211 36.7761 11.4592C34.6498 10.022 34.5898 10.0039 31.2893 9.82124C29.4542 9.71989 26.7908 9.44427 25.3708 9.20866L22.7888 8.78069L28.5982 8.61738C31.7935 8.52734 34.5933 8.33498 34.8199 8.18942C35.0932 8.01416 35.8301 8.4715 37.0075 9.54755C39.3568 11.6948 43.2139 13.6045 46.2287 14.1128C48.6374 14.5192 53.336 14.3833 57.9684 13.7736C61.8569 13.2617 68.135 12.0721 68.135 11.8475C68.135 11.5115 61.2401 10.5581 56.5732 10.2489C54.2523 10.0949 52.1912 9.86868 51.9927 9.74604C51.7945 9.62339 51.2062 8.93497 50.6853 8.21588C49.6667 6.80967 49.4181 7.06399 50.2463 8.66547C50.5255 9.20543 50.7072 9.69311 50.6497 9.74862C50.4164 9.9739 43.9379 8.87881 41.831 8.25816C40.5884 7.89184 38.7339 7.14823 37.7098 6.60504C35.8969 5.64422 35.8627 5.60129 36.4188 4.98646C37.1459 4.18217 39.0518 3.20682 40.6155 2.83824C42.5704 2.37768 47.4691 2.45611 49.7076 2.9838ZM32.6326 12.2002C33.9639 12.3813 35.498 12.6685 36.0415 12.8386C37.1885 13.1975 38.8684 14.8755 40.3799 17.1722C42.5788 20.5133 44.3145 21.72 48.3637 22.7228C50.8105 23.3289 59.3494 23.5035 63.6814 23.0362L66.1669 22.7683L66.3637 21.2611C66.8779 17.3248 68.6472 14.7964 71.0791 14.5224C72.3995 14.3736 72.6732 14.4659 73.7721 15.4306C74.4451 16.0216 75.2797 17.1635 75.627 17.9681C76.3099 19.5512 76.5384 22.8103 76.1085 24.8375L75.8516 26.0478H80.7722C83.4785 26.0478 85.5544 26.1678 85.3859 26.3144C85.2171 26.4612 79.8508 27.2022 73.4604 27.9613C67.0699 28.7208 55.3783 30.128 47.4791 31.0888C39.5798 32.0496 28.8322 33.3442 23.5956 33.9651C18.359 34.5861 11.1514 35.4549 7.57857 35.8961C-2.74811 37.1716 -2.62837 37.0212 8.59587 34.62C13.2067 33.6337 17.2249 32.8265 17.525 32.8261C18.3803 32.8252 18.4688 32.3591 17.9004 30.8425C17.1461 28.8305 17.1294 23.5397 17.8697 21.1471C18.9597 17.624 21.6007 15.0743 24.1595 15.0743C26.9209 15.0743 28.5653 16.434 30.3127 20.1624C31.1154 21.8749 31.1802 22.3284 31.1802 26.2237V30.4336L36.1828 29.7145C43.751 28.6265 52.0214 27.7228 59.9049 27.1222C63.8102 26.8249 67.037 26.5629 67.0757 26.5403C67.1141 26.5177 66.9921 25.9981 66.8043 25.3858L66.4628 24.2726L57.3742 25.3003C45.9002 26.5977 40.7594 26.9198 39.7909 26.4015C39.3693 26.1759 38.4915 24.7949 37.6568 23.0443C33.7542 14.8581 27.8866 12.3413 14.578 13.1446C11.8369 13.3098 9.54185 13.3925 9.47762 13.3282C9.25428 13.1052 15.3258 12.1163 18.5653 11.8484C22.2636 11.5425 29.0423 11.7119 32.6326 12.2002ZM16.6565 16.0242C17.1965 16.241 17.0651 16.3482 15.8551 16.6797C13.7114 17.2671 11.7104 18.3818 9.71743 20.0992C6.98503 22.4533 4.89071 23.2047 2.69763 22.6169C1.61546 22.3268 1.81137 22.0289 3.35572 21.6158C4.79486 21.2307 5.61754 20.5675 7.36039 18.3863C8.89829 16.4618 10.6566 15.7156 13.5904 15.7427C14.9218 15.755 16.3015 15.8818 16.6565 16.0242ZM70.3942 16.2039C69.4441 16.7471 69.6771 16.822 70.8864 16.3621C71.6397 16.0758 71.8728 16.1655 72.8107 17.1034C74.5196 18.8124 75.0493 21.7604 74.1201 24.3934C73.8619 25.1257 73.7715 25.725 73.9193 25.725C75.2968 25.725 75.5595 20.7398 74.315 18.2124C73.8741 17.3171 73.1702 16.4712 72.6364 16.1952C71.5239 15.6197 71.4154 15.6201 70.3942 16.2039ZM22.4034 17.8545L21.4978 18.6981L22.374 18.1772C24.409 16.9675 26.2712 17.849 27.4451 20.5775C28.729 23.562 28.6625 27.1403 27.2611 30.4856C27.152 30.746 27.3789 30.889 27.9008 30.889C29.0359 30.889 29.55 29.2165 29.5474 25.5356C29.5458 22.869 29.4484 22.4052 28.475 20.4281C26.8228 17.0721 24.3625 16.0293 22.4034 17.8545Z" fill="white"/>
<path d="M89.925 28V9.375H102.05V12H92.875V17.6H101.05V20.225H92.875V28H89.925ZM104.25 28V14.475H107.075V28H104.25ZM104.25 12.625V9.375H107.075V12.625H104.25ZM109.028 28L113.753 21.225L109.028 14.475H112.353L116.228 20.125H114.628L118.503 14.475H121.828L117.078 21.225L121.803 28H118.478L114.653 22.325H116.203L112.353 28H109.028ZM124.031 28V9.375H126.781L133.781 19.075H132.406L139.281 9.375H142.031V28H139.106V12.85L140.206 13.15L133.181 22.75H132.881L126.006 13.15L126.981 12.85V28H124.031ZM146.807 33.525C146.474 33.525 146.14 33.4917 145.807 33.425C145.49 33.375 145.199 33.2917 144.932 33.175V30.75C145.132 30.8 145.374 30.8417 145.657 30.875C145.94 30.925 146.215 30.95 146.482 30.95C147.265 30.95 147.84 30.775 148.207 30.425C148.59 30.0917 148.932 29.5667 149.232 28.85L150.132 26.8L150.082 29.175L144.232 14.475H147.257L151.582 25.75H150.557L154.857 14.475H157.907L151.932 29.475C151.615 30.275 151.215 30.975 150.732 31.575C150.265 32.1917 149.707 32.6667 149.057 33C148.424 33.35 147.674 33.525 146.807 33.525ZM168.79 28.3C167.474 28.3 166.249 28.0583 165.115 27.575C163.999 27.0917 163.024 26.425 162.19 25.575C161.374 24.7083 160.732 23.6917 160.265 22.525C159.799 21.3583 159.565 20.075 159.565 18.675C159.565 17.2917 159.79 16.0167 160.24 14.85C160.707 13.6667 161.357 12.65 162.19 11.8C163.024 10.9333 163.999 10.2667 165.115 9.8C166.232 9.31667 167.457 9.075 168.79 9.075C170.107 9.075 171.282 9.3 172.315 9.75C173.365 10.2 174.249 10.7917 174.965 11.525C175.682 12.2417 176.199 13.025 176.515 13.875L173.865 15.125C173.465 14.125 172.824 13.3167 171.94 12.7C171.074 12.0667 170.024 11.75 168.79 11.75C167.557 11.75 166.465 12.0417 165.515 12.625C164.565 13.2083 163.824 14.0167 163.29 15.05C162.774 16.0833 162.515 17.2917 162.515 18.675C162.515 20.0583 162.774 21.275 163.29 22.325C163.824 23.3583 164.565 24.1667 165.515 24.75C166.465 25.3167 167.557 25.6 168.79 25.6C170.024 25.6 171.074 25.2917 171.94 24.675C172.824 24.0583 173.465 23.25 173.865 22.25L176.515 23.5C176.199 24.3333 175.682 25.1167 174.965 25.85C174.249 26.5833 173.365 27.175 172.315 27.625C171.282 28.075 170.107 28.3 168.79 28.3ZM183.08 28.3C182.163 28.3 181.355 28.1417 180.655 27.825C179.972 27.4917 179.438 27.0417 179.055 26.475C178.672 25.8917 178.48 25.2083 178.48 24.425C178.48 23.6917 178.638 23.0333 178.955 22.45C179.288 21.8667 179.797 21.375 180.48 20.975C181.163 20.575 182.022 20.2917 183.055 20.125L187.755 19.35V21.575L183.605 22.3C182.855 22.4333 182.305 22.675 181.955 23.025C181.605 23.3583 181.43 23.7917 181.43 24.325C181.43 24.8417 181.622 25.2667 182.005 25.6C182.405 25.9167 182.913 26.075 183.53 26.075C184.297 26.075 184.963 25.9083 185.53 25.575C186.113 25.2417 186.563 24.8 186.88 24.25C187.197 23.6833 187.355 23.0583 187.355 22.375V18.9C187.355 18.2333 187.105 17.6917 186.605 17.275C186.122 16.8417 185.472 16.625 184.655 16.625C183.905 16.625 183.247 16.825 182.68 17.225C182.13 17.6083 181.722 18.1083 181.455 18.725L179.105 17.55C179.355 16.8833 179.763 16.3 180.33 15.8C180.897 15.2833 181.555 14.8833 182.305 14.6C183.072 14.3167 183.88 14.175 184.73 14.175C185.797 14.175 186.738 14.375 187.555 14.775C188.388 15.175 189.03 15.7333 189.48 16.45C189.947 17.15 190.18 17.9667 190.18 18.9V28H187.48V25.55L188.055 25.625C187.738 26.175 187.33 26.65 186.83 27.05C186.347 27.45 185.788 27.7583 185.155 27.975C184.538 28.1917 183.847 28.3 183.08 28.3ZM193.483 28V14.475H196.183V17.2L195.933 16.8C196.233 15.9167 196.716 15.2833 197.383 14.9C198.05 14.5 198.85 14.3 199.783 14.3H200.608V16.875H199.433C198.5 16.875 197.741 17.1667 197.158 17.75C196.591 18.3167 196.308 19.1333 196.308 20.2V28H193.483Z" fill="white"/>
</svg>
